<?xml version="1.0" encoding="UTF-8"?>
<svg xmlns="http://www.w3.org/2000/svg" viewBox="0 0 507.87 507.87">
  <defs>
    <style>
      .cls-1 {
        fill: #fff;
      }

      .cls-2 {
        fill: #4a4a4a;
      }

      .cls-3 {
        fill: none;
        stroke: #4a4a4a;
        stroke-linecap: round;
        stroke-miterlimit: 10;
        stroke-width: 18px;
      }

      .cls-4 {
        fill: #ffe394;
      }
    </style>
  </defs>
  <g id="gelber_Balken" data-name="gelber Balken">
    <polygon class="cls-4" points="29.82 190.57 479.38 190.57 488.63 110.41 447.96 35.9 351.63 14.43 89.39 14.43 29.82 58.73 29.82 190.57"/>
  </g>
  <g id="katzenohren">
    <path class="cls-1" d="M43.07,190.57h21.82c4.32,0,7.81-3.52,7.76-7.85-.24-21.07,7.13-78.89,12.94-103.02,1.35-5.62,8.17-7.79,12.58-4.06,36.38,30.72,65.62,68.36,89.74,110.97,1.38,2.44,3.96,3.96,6.76,3.96h132.58c3.15,0,6-1.9,7.18-4.82,16.32-40.3,40.15-77.45,74.31-110.23,4.04-3.88,10.75-2.25,12.65,3.02,8.49,23.52,21.28,83.39,22.1,104.52,.16,4.19,3.57,7.51,7.76,7.51h29.61c4.29,0,7.76,3.48,7.76,7.76v236.22c0,2.23-.96,4.35-2.63,5.83l-48.12,42.35c-1.28,1.13-2.9,1.8-4.61,1.92l-138.83,9.29c-.27,.02-.54,.02-.81,.01l-140.4-5.26-72.08-3.05c-1.81-.08-3.54-.78-4.88-2l-51.52-46.66c-1.48-1.34-2.38-3.19-2.53-5.17l-8.13-108.55c-.05-.63-.02-1.27,.09-1.89l21.26-124.34c.64-3.73,3.87-6.46,7.65-6.46Z"/>
  </g>
  <g id="Gesicht">
    <ellipse class="cls-2" cx="148.22" cy="294.62" rx="20.3" ry="27.69"/>
    <ellipse class="cls-2" cx="368.39" cy="294.62" rx="20.3" ry="27.69"/>
    <path class="cls-2" d="M235.93,335.82c-3.43-3.57-2.18-6.49,2.77-6.49h46.34c4.95,0,6.08,2.81,2.51,6.24l-20.49,19.7c-3.57,3.43-9.29,3.31-12.72-.26l-18.4-19.18Z"/>
    <path class="cls-3" d="M326.25,377.69c-7.43,29.7-29.15,44.75-63.72,44.75s-60.26-17.69-65.31-45.84"/>
    <path class="cls-2" d="M165.89,376.6c0,2.84-3.6,5.16-8,5.16H68.94c-4.4,0-8-2.32-8-5.16s3.6-5.16,8-5.16h88.95c4.4,0,8,2.32,8,5.16Z"/>
    <path class="cls-2" d="M459.87,378.73c0,2.84-3.6,5.16-8,5.16h-88.95c-4.4,0-8-2.32-8-5.16s3.6-5.16,8-5.16h88.95c4.4,0,8,2.32,8,5.16Z"/>
    <path class="cls-2" d="M457.3,325.17c.88,2.7-1.83,6.02-6.01,7.38l-84.59,27.5c-4.18,1.36-8.33,.26-9.2-2.44s1.83-6.02,6.01-7.38l84.59-27.5c4.18-1.36,8.33-.26,9.2,2.44Z"/>
    <path class="cls-2" d="M164.14,356.57c-.92,2.69-5.08,3.72-9.24,2.3l-84.18-28.73c-4.16-1.42-6.82-4.78-5.9-7.47s5.08-3.72,9.24-2.3l84.18,28.73c4.16,1.42,6.82,4.78,5.9,7.47Z"/>
    <path class="cls-2" d="M165.58,396.72c.75,2.74-2.12,5.93-6.36,7.09l-85.82,23.38c-4.25,1.16-8.33-.14-9.08-2.88s2.12-5.93,6.36-7.09l85.82-23.38c4.25-1.16,8.33,.14,9.08,2.88Z"/>
    <path class="cls-2" d="M456.08,425.89c-.72,2.75-4.79,4.09-9.05,2.97l-86.06-22.49c-4.26-1.11-7.15-4.27-6.43-7.02s4.79-4.09,9.05-2.97l86.06,22.49c4.26,1.11,7.15,4.27,6.43,7.02Z"/>
  </g>
  <g id="Rahmen">
    <path class="cls-2" d="M392.1,0H115.76C51.83,0,0,51.83,0,115.76V392.1c0,63.93,51.83,115.76,115.76,115.76H392.1c63.93,0,115.76-51.83,115.76-115.76V115.76C507.87,51.83,456.04,0,392.1,0Zm86.41,390.45c0,48.64-39.43,88.07-88.07,88.07H123.6c-48.64,0-88.07-39.43-88.07-88.07V123.6c0-48.64,39.43-88.07,88.07-88.07H390.45c48.64,0,88.07,39.43,88.07,88.07V390.45Z"/>
  </g>
</svg>