<?xml version="1.0" encoding="utf-8"?>
<!-- Generator: Adobe Illustrator 27.2.0, SVG Export Plug-In . SVG Version: 6.00 Build 0)  -->
<svg version="1.1" id="Ebene_1" xmlns="http://www.w3.org/2000/svg" xmlns:xlink="http://www.w3.org/1999/xlink" x="0px" y="0px"
	 viewBox="0 0 512 512" style="enable-background:new 0 0 512 512;" xml:space="preserve">
<style type="text/css">
	.st0{fill:#353E60;}
	.st1{fill:#FFFFFF;}
	.st2{fill:#4A4A4A;}
	.st3{fill:none;stroke:#4A4A4A;stroke-width:18;stroke-linecap:round;stroke-miterlimit:10;}
</style>
<g id="gelber_Balken">
	<polygon class="st0" points="33,193.6 482.5,193.6 491.8,113.4 451.1,38.9 354.8,17.5 92.5,17.5 33,61.8 	"/>
</g>
<g id="katzenohren">
	<path class="st1" d="M46.2,193.6H68c4.3,0,7.8-3.5,7.8-7.9c-0.2-21.1,7.1-78.9,12.9-103c1.3-5.6,8.2-7.8,12.6-4.1
		c36.4,30.7,65.6,68.4,89.7,111c1.4,2.4,4,4,6.8,4h132.6c3.1,0,6-1.9,7.2-4.8c16.3-40.3,40.1-77.4,74.3-110.2c4-3.9,10.8-2.2,12.6,3
		c8.5,23.5,21.3,83.4,22.1,104.5c0.2,4.2,3.6,7.5,7.8,7.5H484c4.3,0,7.8,3.5,7.8,7.8v236.2c0,2.2-1,4.4-2.6,5.8L441,485.7
		c-1.3,1.1-2.9,1.8-4.6,1.9L297.6,497c-0.3,0-0.5,0-0.8,0l-140.4-5.3l-72.1-3c-1.8-0.1-3.5-0.8-4.9-2L27.9,440
		c-1.5-1.3-2.4-3.2-2.5-5.2l-8.1-108.6c0-0.6,0-1.3,0.1-1.9L38.6,200C39.2,196.3,42.4,193.6,46.2,193.6L46.2,193.6z"/>
</g>
<g id="Gesicht">
	<ellipse class="st2" cx="151.4" cy="297.6" rx="20.3" ry="27.7"/>
	<ellipse class="st2" cx="371.5" cy="297.6" rx="20.3" ry="27.7"/>
	<path class="st2" d="M239.1,338.8c-3.4-3.6-2.2-6.5,2.8-6.5h46.3c5,0,6.1,2.8,2.5,6.2l-20.5,19.7c-3.6,3.4-9.3,3.3-12.7-0.3
		L239.1,338.8L239.1,338.8z"/>
	<path class="st3" d="M329.4,380.7c-7.4,29.7-29.1,44.8-63.7,44.8s-60.3-17.7-65.3-45.8"/>
	<path class="st2" d="M169,379.6c0,2.8-3.6,5.2-8,5.2h-89c-4.4,0-8-2.3-8-5.2s3.6-5.2,8-5.2H161C165.4,374.5,169,376.8,169,379.6
		L169,379.6z"/>
	<path class="st2" d="M463,381.8c0,2.8-3.6,5.2-8,5.2h-89c-4.4,0-8-2.3-8-5.2s3.6-5.2,8-5.2h89C459.4,376.6,463,378.9,463,381.8z"/>
	<path class="st2" d="M460.4,328.2c0.9,2.7-1.8,6-6,7.4l-84.6,27.5c-4.2,1.4-8.3,0.3-9.2-2.4s1.8-6,6-7.4l84.6-27.5
		C455.4,324.4,459.6,325.5,460.4,328.2z"/>
	<path class="st2" d="M167.3,359.6c-0.9,2.7-5.1,3.7-9.2,2.3l-84.2-28.7c-4.2-1.4-6.8-4.8-5.9-7.5s5.1-3.7,9.2-2.3l84.2,28.7
		C165.5,353.5,168.2,356.9,167.3,359.6L167.3,359.6z"/>
	<path class="st2" d="M168.7,399.8c0.8,2.7-2.1,5.9-6.4,7.1l-85.8,23.4c-4.2,1.2-8.3-0.1-9.1-2.9s2.1-5.9,6.4-7.1l85.8-23.4
		C163.9,395.7,168,397,168.7,399.8z"/>
	<path class="st2" d="M459.2,428.9c-0.7,2.8-4.8,4.1-9,3l-86.1-22.5c-4.3-1.1-7.1-4.3-6.4-7s4.8-4.1,9-3l86.1,22.5
		C457,423,459.9,426.2,459.2,428.9z"/>
</g>
<g id="Rahmen">
	<path class="st2" d="M395.2,3H118.9C55,3,3.1,54.8,3.1,118.8v276.4c0,63.9,51.8,115.8,115.8,115.8h276.3
		c63.9,0,115.8-51.8,115.8-115.8V118.8C511,54.8,459.2,3,395.2,3z M481.6,393.5c0,48.6-39.4,88.1-88.1,88.1H126.7
		c-48.6,0-88.1-39.4-88.1-88.1V126.6c0-48.6,39.4-88.1,88.1-88.1h266.8c48.6,0,88.1,39.4,88.1,88.1V393.5z"/>
</g>
</svg>
