<?xml version="1.0" ?><svg viewBox="0 0 64 64" xmlns="http://www.w3.org/2000/svg"><title/><g data-name="Day 11" id="b6915b9a-05e3-4b53-997f-ea4dc31be1a6"><path d="M59.88,34.22c-1.14-.15-2.29,0-3.43-.18l-1.09-.15-1.13-.14a.45.45,0,0,1-.44-.41c-.28-1.11-.62-2.2-1-3.29a25.28,25.28,0,0,0-2-4.55,28.7,28.7,0,0,0-7.26-8.31A36.58,36.58,0,0,0,26,9.51c-1-.15-2-.35-3-.45A10.89,10.89,0,0,0,21.86,9h-2a9.59,9.59,0,0,0-1.14.3c-.49.07-.55.28-.24.7s.7,1,1.08,1.38c.5.57,1,1.17,1.41,1.78a28.41,28.41,0,0,1,1.77,2.74c.43.74.82,1.49,1.2,2.26a1.3,1.3,0,0,1,.2.49.32.32,0,0,1-.06.18c-.17.23-.47.09-.71,0A21.07,21.07,0,0,0,4.16,24.6c-.2.19-.39.37-.58.57a21.74,21.74,0,0,0-2.56,3c-.1.36.17.35.38.38,1.15.16,2.31.29,3.45.49l.81.15A20.84,20.84,0,0,1,14.58,33c.35.27.69.56,1,.85l.3.2c-.31.16-.53.27-.75.4s-.53.31-.78.48A18.73,18.73,0,0,0,7.5,42.77c-.17.36-.34.72-.5,1.08a34.73,34.73,0,0,0-2.28,7.43,7.9,7.9,0,0,0-.09.85c0,.3.12.42.41.3s.55-.25.82-.39c.79-.43,1.59-.86,2.39-1.27A43.87,43.87,0,0,1,13,48.56,28.72,28.72,0,0,1,26.21,47h.07a2.77,2.77,0,0,1,.79.19h0a3,3,0,0,1,1,.6c.51.44,1,.86,1.57,1.26a18.92,18.92,0,0,0,6.79,3.38,12.88,12.88,0,0,0,6.75,0,.49.49,0,0,1,.48.07,6.33,6.33,0,0,0,2.85,1.38s.06.06.1.09h.76c.25-.08.51-.15.75-.25.5-.21,1-.49,1-1.11a1.19,1.19,0,0,0-.93-1.14c-.55-.22-1.11-.38-1.67-.58-.14,0-.32,0-.44-.23a10.66,10.66,0,0,0,3.16-2.24l1.13-1.12a2,2,0,0,1,.67-.44,8.37,8.37,0,0,0,3.81-3,.7.7,0,0,0,.17-.36h0a1.47,1.47,0,0,1,.34-.92,7.18,7.18,0,0,1,1.39-1.17,19.23,19.23,0,0,0,3.54-3.67q.36-.45.69-.93s0,0,.06-.08Q62.42,34.56,59.88,34.22Z" data-name="&lt;Compound Path&gt;" fill="#0047de" id="4f3de11b-c544-4c50-a1ed-d27c096b9d79"/><path d="M49.1,52.64c0,.62-.47.9-1,1.11-.24.1-.5.17-.75.25h-.76s-.06-.08-.1-.09a6.33,6.33,0,0,1-2.85-1.38.49.49,0,0,0-.48-.07,12.88,12.88,0,0,1-6.75,0,18.92,18.92,0,0,1-6.79-3.38c-.54-.4-1.06-.82-1.57-1.26a3,3,0,0,0-1-.6A10.87,10.87,0,0,1,27,46c-.08-6.58,5-4,5-4,1.93-1.82,11.35,2.86,17.22,6.45a10.66,10.66,0,0,1-3.16,2.24c.12.18.3.18.44.23.56.2,1.12.36,1.67.58A1.19,1.19,0,0,1,49.1,52.64Z" data-name="&lt;Path&gt;" fill="#8bb2ff" id="3891be48-0592-40d4-a246-0d20844e15aa"/><path d="M27,46l-.79,1A28.72,28.72,0,0,0,13,48.56a43.87,43.87,0,0,0-4.77,2.21c-.8.41-1.6.84-2.39,1.27-.27.14-.55.26-.82.39s-.43,0-.41-.3a7.9,7.9,0,0,1,.09-.85A34.73,34.73,0,0,1,7,43.85,3.32,3.32,0,0,0,10,46C13.38,44.5,27,46,27,46Z" data-name="&lt;Path&gt;" fill="#0028de" id="9e10dfb5-16da-40ec-8b7b-068145c0c94d"/><path d="M15.91,34l-.3-.2c-.34-.29-.68-.58-1-.85a20.84,20.84,0,0,0-8.92-3.77l-.81-.15c-1.14-.2-2.3-.33-3.45-.49-.21,0-.48,0-.38-.38a21.74,21.74,0,0,1,2.56-3L4,26s6.25-.62,10,3S15.91,34,15.91,34Z" data-name="&lt;Path&gt;" fill="#0028de" id="6e866974-75f7-44ee-b47a-746c55ec70a1"/><path d="M25,19l-.86-.35a1.3,1.3,0,0,0-.2-.49c-.38-.77-.77-1.52-1.2-2.26A28.41,28.41,0,0,0,21,13.16c-.44-.61-.91-1.21-1.41-1.78-.38-.42-.74-.92-1.08-1.38s-.25-.63.24-.7A9.59,9.59,0,0,1,19.86,9h2A10.89,10.89,0,0,1,23,9.06V10Z" data-name="&lt;Path&gt;" fill="#0028de" id="aa881f29-c904-4906-bf64-0ae7bae265a5"/><path d="M59.88,34.22c-1.14-.15-2.29,0-3.43-.18-.74-.09-1.48-.21-2.22-.29a.45.45,0,0,1-.44-.41c-.28-1.11-.62-2.2-1-3.29a27.32,27.32,0,0,0-9.29-12.86A36.58,36.58,0,0,0,26,9.51,28.2,28.2,0,0,0,21.86,9h-2a9.59,9.59,0,0,0-1.14.3c-.49.07-.55.28-.24.7s.7,1,1.08,1.38a30.21,30.21,0,0,1,4.38,6.77c.1.2.3.46.14.67s-.47.1-.71.06A21.06,21.06,0,0,0,4.16,24.6,23.3,23.3,0,0,0,1,28.19c-.1.36.17.35.38.38,1.15.16,2.31.29,3.45.49A21.45,21.45,0,0,1,14.58,33c.35.27.69.56,1,.85l.3.2c-.31.16-.53.27-.75.4A18.74,18.74,0,0,0,7.5,42.77a34.35,34.35,0,0,0-2.78,8.51,7.9,7.9,0,0,0-.09.85c0,.3.12.42.41.3s.55-.25.82-.39A60.64,60.64,0,0,1,13,48.56a28.74,28.74,0,0,1,13.26-1.5,2.77,2.77,0,0,1,.79.19,3,3,0,0,1,1,.61,20.48,20.48,0,0,0,8.36,4.64,12.88,12.88,0,0,0,6.75,0,.49.49,0,0,1,.48.07,6.33,6.33,0,0,0,2.85,1.38s.06.06.1.09h.76c.25-.08.51-.15.75-.25.5-.21,1-.49,1-1.11a1.19,1.19,0,0,0-.93-1.14c-.55-.22-1.11-.38-1.67-.58-.14,0-.32,0-.44-.23a14.06,14.06,0,0,0,4.29-3.36,2,2,0,0,1,.67-.44c1.55-.66,5-4.91,5.71-5.48A20.79,20.79,0,0,0,61,36.81s0,0,.06-.08Q62.42,34.56,59.88,34.22Z" data-name="&lt;Compound Path&gt;" fill="none" id="872d8a93-58be-41dc-808f-d526aa4615cd" stroke="#001c63" stroke-linecap="round" stroke-linejoin="round" stroke-width="2"/><path d="M16.93,12.1s0-.06,0-.09h2s0,.06,0,.09Z" data-name="&lt;Path&gt;" fill="#fdfdfe" id="a656f091-a52b-4768-a9e1-8a7160e379eb"/><path d="M43,44.83A10.2,10.2,0,0,1,42.19,39c.52-3.21.36-7.86-3.31-9.1s-7,.93-6.62,8.28,6.52,6.78,8.28,7.45,3.52,1.19,4.14,2.48,3.93.93,6.62-3.31,1.24-4.14-1.66-2.48S45,46.95,43,44.83Z" data-name="&lt;Path&gt;" fill="none" id="51e49ded-a367-4a01-827c-4f4e62538176" stroke="#001c63" stroke-linecap="round" stroke-linejoin="round" stroke-width="2"/><path d="M43,44.83A10.2,10.2,0,0,1,42.19,39c.52-3.21.36-7.86-3.31-9.1s-7,.93-6.62,8.28,6.52,6.78,8.28,7.45,3.52,1.19,4.14,2.48,3.93.93,6.62-3.31,1.24-4.14-1.66-2.48S45,46.95,43,44.83Z" data-name="&lt;Path&gt;" fill="#fff" id="91079675-038f-4a63-a3c6-3f7ab946e2c2"/><ellipse cx="35.44" cy="38.89" data-name="&lt;Path&gt;" fill="#001c63" id="7a1ad9e1-22b3-4b6a-867b-53ad44d2f1b7" rx="4.66" ry="1.98" transform="translate(-16.21 48.94) rotate(-58.67)"/><ellipse cx="45.4" cy="46.67" data-name="&lt;Path&gt;" fill="#001c63" id="e5cddd31-5508-41b3-adec-b4d2d75eb603" rx="2.59" ry="0.98" transform="translate(-18.07 61.18) rotate(-58.67)"/><polygon data-name="&lt;Path&gt;" fill="#8bb2ff" id="2a89040e-dd3f-427b-ac34-565a4f10ecdf" points="29 26 33 18 38 26 29 26"/><polygon data-name="&lt;Path&gt;" fill="#4a86ff" id="4d5ca8e5-9c3e-4b4f-8819-b9e2e220d4cb" points="31 26 33 23 35 26 31 26"/><polyline data-name="&lt;Path&gt;" fill="none" id="8720e59d-60cd-443a-8f5f-c6ffe4a1493f" points="29 26 33 18 38 26" stroke="#001c63" stroke-linecap="round" stroke-linejoin="round" stroke-width="2"/><path d="M12,23.54A23.19,23.19,0,0,1,22,22" data-name="&lt;Path&gt;" fill="none" id="c2b5ddcf-e57a-4b3a-906b-9956c8b25774" stroke="#fff" stroke-linecap="round" stroke-linejoin="round" stroke-width="2"/><circle cx="9" cy="25" data-name="&lt;Path&gt;" fill="#fff" id="ca07d31a-7215-4330-9996-5c796cb87731" r="1"/><path d="M49.89,31A9.77,9.77,0,0,1,50,33" data-name="&lt;Path&gt;" fill="none" id="7129a329-5c3f-4557-8491-95b43c1f9ff4" stroke="#fff" stroke-linecap="round" stroke-linejoin="round" stroke-width="2"/><path d="M46,24a13.36,13.36,0,0,1,2.94,4" data-name="&lt;Path&gt;" fill="none" id="babcb7fc-551a-4a63-aa08-90614e861bde" stroke="#fff" stroke-linecap="round" stroke-linejoin="round" stroke-width="2"/></g></svg>