<?xml version="1.0" encoding="UTF-8"?>
<svg id="Ebene_1" data-name="Ebene 1" xmlns="http://www.w3.org/2000/svg" viewBox="0 0 128 36">
  <defs>
    <style>
      .cls-1 {
        fill: #007fff;
      }
    </style>
  </defs>
  <path class="cls-1" d="M16.54,8.83c1.68,0,3.18,.42,4.49,1.26,1.31,.84,2.35,1.99,3.12,3.44,.77,1.45,1.15,3.14,1.15,5.06s-.38,3.62-1.15,5.1c-.77,1.48-1.8,2.64-3.1,3.48-1.3,.84-2.76,1.26-4.4,1.26-.91,0-1.78-.14-2.6-.43-.82-.29-1.54-.67-2.16-1.13-.62-.47-1.14-.97-1.53-1.5-.4-.53-.64-1.02-.74-1.48l.97-.47v10.06c0,.53-.17,.97-.52,1.32-.35,.35-.77,.52-1.28,.52s-.96-.17-1.3-.52c-.34-.35-.5-.79-.5-1.32V10.92c0-.5,.17-.94,.5-1.3,.34-.36,.77-.54,1.3-.54s.93,.18,1.28,.54c.35,.36,.52,.79,.52,1.3v2.49l-.58-.32c.07-.46,.3-.93,.68-1.42,.38-.49,.87-.96,1.46-1.39s1.26-.78,2.02-1.04c.76-.26,1.54-.4,2.36-.4Zm-.4,3.32c-1.15,0-2.16,.28-3.01,.85-.85,.56-1.52,1.33-2,2.29-.48,.96-.72,2.07-.72,3.32s.24,2.34,.72,3.33c.48,1,1.15,1.78,2,2.34,.85,.56,1.86,.85,3.01,.85s2.11-.28,2.96-.85c.84-.56,1.51-1.35,2-2.34,.49-1,.74-2.11,.74-3.33s-.25-2.32-.74-3.3c-.49-.97-1.16-1.74-2-2.31-.84-.56-1.83-.85-2.96-.85Z"/>
  <path class="cls-1" d="M44.9,8.87c.53,0,.96,.17,1.3,.52,.34,.35,.5,.79,.5,1.32v15.57c0,.53-.17,.97-.5,1.32-.34,.35-.77,.52-1.3,.52s-.93-.17-1.28-.52c-.35-.35-.52-.79-.52-1.32v-2.59l.76,.11c0,.43-.17,.91-.52,1.44-.35,.53-.82,1.04-1.42,1.53-.6,.49-1.31,.9-2.13,1.23-.82,.32-1.69,.49-2.63,.49-1.66,0-3.15-.43-4.47-1.28-1.32-.85-2.37-2.02-3.14-3.51-.77-1.49-1.15-3.18-1.15-5.08s.38-3.66,1.15-5.14c.77-1.48,1.81-2.64,3.12-3.48,1.31-.84,2.77-1.26,4.38-1.26,1.03,0,1.99,.17,2.87,.5,.88,.34,1.64,.77,2.29,1.3,.65,.53,1.15,1.09,1.5,1.68,.35,.59,.52,1.15,.52,1.68l-1.12,.11v-3.28c0-.5,.17-.94,.52-1.3,.35-.36,.77-.54,1.28-.54Zm-7.35,16.29c1.13,0,2.13-.29,2.99-.87,.86-.58,1.54-1.36,2.02-2.36,.48-1,.72-2.11,.72-3.33s-.24-2.37-.72-3.35c-.48-.98-1.15-1.77-2.02-2.34-.87-.58-1.86-.86-2.99-.86s-2.08,.29-2.94,.86c-.85,.58-1.53,1.36-2.02,2.34-.49,.99-.74,2.1-.74,3.35s.25,2.34,.74,3.33c.49,1,1.17,1.78,2.02,2.36,.85,.58,1.83,.87,2.94,.87Z"/>
  <path class="cls-1" d="M73.62,8.98c.46,0,.86,.17,1.21,.52,.35,.35,.52,.8,.52,1.35,0,.12-.01,.24-.04,.36-.02,.12-.06,.23-.11,.32l-5.52,15.43c-.14,.41-.4,.71-.76,.92-.36,.2-.73,.28-1.12,.23-.7-.05-1.21-.43-1.55-1.15l-4.07-10.81,.83,.07-3.75,10.74c-.34,.72-.85,1.11-1.55,1.15-.36,.05-.73-.03-1.1-.23-.37-.2-.63-.51-.77-.92l-5.55-15.43c-.1-.22-.14-.44-.14-.68,0-.5,.16-.94,.49-1.32,.32-.37,.76-.56,1.32-.56,.38,0,.73,.1,1.03,.29,.3,.19,.51,.48,.63,.87l4.61,13.01-.83-.07,3.75-9.84c.31-.74,.87-1.12,1.66-1.12,.43,0,.77,.1,1.01,.29,.24,.19,.43,.47,.58,.83l3.82,9.87-.97,.11,4.65-13.08c.24-.77,.82-1.15,1.73-1.15Z"/>
  <path class="cls-1" d="M79.1,9.05c.6,0,1.09,.25,1.48,.76l12.29,15.5c.26,.31,.4,.67,.4,1.08,0,.48-.19,.9-.58,1.26s-.8,.54-1.26,.54c-.58,0-1.07-.25-1.48-.76l-12.29-15.5c-.26-.31-.4-.67-.4-1.08,0-.5,.19-.93,.56-1.28,.37-.35,.8-.52,1.28-.52Zm.04,19.14c-.41,0-.81-.16-1.19-.47-.38-.31-.58-.7-.58-1.15,0-.41,.14-.78,.43-1.12l5.73-7.1,1.84,2.96-4.79,6.13c-.38,.5-.86,.76-1.44,.76Zm12.25-19.14c.5,0,.92,.16,1.24,.49s.49,.7,.49,1.14c0,.19-.03,.39-.09,.59-.06,.2-.17,.39-.34,.56l-5.66,7.1-1.87-2.67,4.79-6.38c.41-.55,.89-.83,1.44-.83Z"/>
  <path class="cls-1" d="M105.23,28.47c-1.99,0-3.72-.41-5.19-1.24-1.47-.83-2.6-1.97-3.41-3.42-.8-1.45-1.21-3.12-1.21-4.99,0-2.11,.43-3.92,1.28-5.42,.85-1.5,1.96-2.65,3.33-3.46,1.37-.8,2.82-1.21,4.36-1.21,1.18,0,2.29,.23,3.35,.7,1.06,.47,2,1.12,2.83,1.95,.83,.83,1.48,1.8,1.96,2.92,.48,1.12,.73,2.34,.76,3.66-.02,.48-.22,.88-.58,1.19-.36,.31-.78,.47-1.26,.47h-14.02l-.87-3.06h13.55l-.68,.65v-.9c-.05-.84-.32-1.58-.83-2.22-.5-.64-1.13-1.13-1.87-1.48-.75-.35-1.53-.52-2.34-.52-.72,0-1.41,.11-2.07,.34-.66,.23-1.25,.59-1.77,1.1s-.93,1.17-1.23,2c-.3,.83-.45,1.86-.45,3.08,0,1.32,.28,2.47,.83,3.46,.55,.99,1.3,1.75,2.23,2.29,.94,.54,1.97,.81,3.1,.81,.89,0,1.62-.09,2.2-.27,.58-.18,1.06-.4,1.44-.67,.38-.26,.72-.52,1.01-.76,.36-.22,.72-.32,1.08-.32,.43,0,.79,.15,1.08,.45,.29,.3,.43,.66,.43,1.06,0,.53-.26,1.01-.79,1.44-.65,.62-1.54,1.18-2.69,1.66-1.14,.48-2.34,.72-3.59,.72Z"/>
  <path class="cls-1" d="M121.27,26.28c0,.53-.17,.97-.52,1.32s-.77,.52-1.28,.52-.93-.17-1.28-.52c-.35-.35-.52-.79-.52-1.32V3.28c0-.53,.18-.97,.54-1.32,.36-.35,.79-.52,1.3-.52s.96,.17,1.28,.52c.32,.35,.49,.79,.49,1.32V26.28Z"/>
</svg>