<?xml version="1.0" encoding="UTF-8"?>
<svg id="Ebene_1" data-name="Ebene 1" xmlns="http://www.w3.org/2000/svg" viewBox="0 0 128 38">
  <defs>
    <style>
      .cls-1 {
        fill: #007fff;
      }
    </style>
  </defs>
  <path class="cls-1" d="M13.44,8.85c1.79,0,3.38,.45,4.77,1.34,1.39,.89,2.49,2.11,3.31,3.66,.82,1.54,1.23,3.34,1.23,5.38s-.41,3.85-1.23,5.42c-.82,1.57-1.91,2.8-3.29,3.69-1.38,.89-2.94,1.34-4.67,1.34-.97,0-1.89-.15-2.76-.46-.87-.31-1.63-.71-2.3-1.21-.66-.5-1.21-1.03-1.63-1.59-.42-.56-.68-1.08-.78-1.57l1.03-.5v10.68c0,.56-.19,1.03-.56,1.4-.37,.37-.82,.56-1.36,.56s-1.02-.19-1.38-.56c-.36-.37-.54-.84-.54-1.4V11.07c0-.54,.18-1,.54-1.38,.36-.38,.82-.57,1.38-.57s.99,.19,1.36,.57c.37,.38,.56,.84,.56,1.38v2.64l-.61-.34c.08-.48,.32-.99,.73-1.51,.41-.52,.92-1.01,1.55-1.47s1.34-.83,2.14-1.11c.8-.28,1.64-.42,2.51-.42Zm-.42,3.52c-1.23,0-2.29,.3-3.2,.9-.91,.6-1.61,1.41-2.12,2.43-.51,1.02-.77,2.2-.77,3.52s.25,2.48,.77,3.54c.51,1.06,1.22,1.89,2.12,2.49,.91,.6,1.97,.9,3.2,.9s2.25-.3,3.14-.9c.89-.6,1.6-1.43,2.12-2.49,.52-1.06,.78-2.24,.78-3.54s-.26-2.47-.78-3.5c-.52-1.03-1.23-1.85-2.12-2.45-.89-.6-1.94-.9-3.14-.9Z"/>
  <path class="cls-1" d="M43.57,8.89c.56,0,1.02,.19,1.38,.56,.36,.37,.54,.84,.54,1.4V27.39c0,.56-.18,1.03-.54,1.4-.36,.37-.82,.56-1.38,.56s-.99-.18-1.36-.56c-.37-.37-.56-.84-.56-1.4v-2.76l.8,.11c0,.46-.19,.97-.56,1.53-.37,.56-.87,1.1-1.51,1.63-.64,.52-1.39,.96-2.26,1.3-.87,.34-1.8,.52-2.8,.52-1.76,0-3.34-.45-4.75-1.36-1.4-.91-2.51-2.15-3.33-3.73-.82-1.58-1.23-3.38-1.23-5.4s.41-3.89,1.23-5.46c.82-1.57,1.92-2.8,3.31-3.69,1.39-.89,2.94-1.34,4.65-1.34,1.1,0,2.11,.18,3.04,.54,.93,.36,1.74,.82,2.43,1.38,.69,.56,1.22,1.16,1.59,1.78,.37,.63,.56,1.22,.56,1.78l-1.19,.12v-3.48c0-.54,.19-1,.56-1.38,.37-.38,.82-.57,1.36-.57Zm-7.81,17.31c1.2,0,2.26-.31,3.18-.92,.92-.61,1.63-1.45,2.14-2.51,.51-1.06,.77-2.24,.77-3.54s-.26-2.51-.77-3.56c-.51-1.05-1.23-1.88-2.14-2.49-.92-.61-1.98-.92-3.18-.92s-2.22,.31-3.12,.92c-.91,.61-1.62,1.44-2.14,2.49-.52,1.05-.78,2.23-.78,3.56s.26,2.48,.78,3.54c.52,1.06,1.24,1.9,2.14,2.51,.91,.61,1.95,.92,3.12,.92Z"/>
  <path class="cls-1" d="M74.09,9.01c.48,0,.91,.19,1.28,.56,.37,.37,.56,.85,.56,1.44,0,.13-.01,.26-.04,.38-.02,.13-.06,.24-.11,.34l-5.86,16.39c-.15,.43-.42,.76-.8,.98-.38,.22-.78,.3-1.19,.25-.74-.05-1.29-.46-1.65-1.23l-4.33-11.49,.88,.08-3.98,11.41c-.36,.77-.91,1.17-1.65,1.23-.38,.05-.77-.03-1.17-.25-.4-.22-.67-.54-.82-.98l-5.9-16.39c-.1-.23-.15-.47-.15-.73,0-.54,.17-1,.52-1.4,.34-.4,.81-.59,1.4-.59,.41,0,.77,.1,1.09,.31,.32,.2,.54,.51,.67,.92l4.9,13.82-.88-.08,3.98-10.45c.33-.79,.92-1.19,1.76-1.19,.46,0,.82,.1,1.07,.31,.26,.2,.46,.5,.61,.88l4.06,10.49-1.03,.12,4.94-13.9c.26-.82,.87-1.23,1.84-1.23Z"/>
  <path class="cls-1" d="M79.91,9.08c.64,0,1.16,.27,1.57,.8l13.06,16.46c.28,.33,.42,.71,.42,1.15,0,.51-.2,.96-.61,1.34s-.85,.57-1.34,.57c-.61,0-1.14-.27-1.57-.8l-13.06-16.47c-.28-.33-.42-.71-.42-1.15,0-.54,.2-.99,.59-1.36,.4-.37,.85-.56,1.36-.56Zm.04,20.33c-.43,0-.86-.17-1.26-.5-.41-.33-.61-.74-.61-1.23,0-.43,.15-.83,.46-1.19l6.09-7.54,1.95,3.14-5.09,6.51c-.41,.54-.92,.8-1.53,.8Zm13.02-20.33c.54,0,.98,.17,1.32,.52s.52,.75,.52,1.21c0,.2-.03,.42-.1,.63-.06,.22-.19,.42-.36,.59l-6.01,7.54-1.99-2.83,5.09-6.78c.43-.59,.94-.88,1.53-.88Z"/>
  <path class="cls-1" d="M107.67,29.72c-2.12,0-3.96-.44-5.51-1.32-1.56-.88-2.76-2.09-3.62-3.64-.85-1.54-1.28-3.31-1.28-5.3,0-2.25,.45-4.17,1.36-5.76,.91-1.6,2.09-2.82,3.54-3.68,1.45-.85,3-1.28,4.63-1.28,1.25,0,2.44,.25,3.56,.75,1.12,.5,2.13,1.19,3.01,2.07,.88,.88,1.58,1.91,2.09,3.1,.51,1.19,.78,2.48,.8,3.89-.03,.51-.23,.93-.61,1.26-.38,.33-.83,.5-1.34,.5h-14.9l-.92-3.25h14.4l-.73,.69v-.96c-.05-.89-.34-1.68-.88-2.35-.54-.68-1.2-1.2-1.99-1.57-.79-.37-1.62-.56-2.49-.56-.77,0-1.5,.12-2.2,.36-.7,.24-1.33,.63-1.88,1.17s-.98,1.24-1.3,2.12c-.32,.88-.48,1.97-.48,3.27,0,1.4,.29,2.63,.88,3.68,.59,1.05,1.38,1.86,2.37,2.43,1,.57,2.09,.86,3.29,.86,.94,0,1.72-.1,2.34-.29,.61-.19,1.12-.43,1.53-.71,.41-.28,.77-.55,1.07-.8,.38-.23,.77-.34,1.15-.34,.46,0,.84,.16,1.15,.48,.31,.32,.46,.7,.46,1.13,0,.56-.28,1.07-.84,1.53-.69,.66-1.64,1.25-2.85,1.76-1.21,.51-2.48,.77-3.81,.77Z"/>
  <path class="cls-1" d="M124.71,27.39c0,.56-.19,1.03-.56,1.4s-.82,.56-1.36,.56-.99-.18-1.36-.56c-.37-.37-.56-.84-.56-1.4V2.96c0-.56,.19-1.03,.57-1.4,.38-.37,.84-.56,1.38-.56s1.01,.19,1.36,.56c.34,.37,.52,.84,.52,1.4V27.39Z"/>
</svg>